# xmcd CD database file
#
# Track frame offsets:
#	150
#	6122
#	36867
#	64616
#
# Disc length: 1235 seconds
#
# Revision: 1
# Processed by: cddbd v1.5.2PL0 Copyright (c) Steve Scherf et al.
# Submitted via: CDex 1.51
#
DISCID=2804d104
DTITLE=Heartbeat Parade - Heartbeat Parade
DYEAR=2011
DGENRE=Country
TTITLE0=L'aube de la révolte
TTITLE1=Les grands et les petits
TTITLE2=The destroyer of worlds
TTITLE3=No bailout
EXTD=YEAR: 2011
EXTT0=
EXTT1=
EXTT2=
EXTT3=
PLAYORDER=
